<?xml version="1.0" encoding="UTF-8"?>
<svg id="Layer_3" data-name="Layer 3" xmlns="http://www.w3.org/2000/svg" viewBox="0 0 1920 1080">
  <defs>
    <style>
      .cls-1 {
        fill: #69bcd9;
      }

      .cls-2 {
        fill: #68bfdf;
      }

      .cls-3 {
        fill: #68c1e2;
      }

      .cls-4 {
        fill: #70938d;
      }

      .cls-5 {
        fill: #94d9f8;
      }

      .cls-6 {
        fill: #6da1a7;
      }

      .cls-7 {
        fill: #6da5af;
      }

      .cls-8 {
        fill: #71897b;
      }

      .cls-9 {
        fill: #709088;
      }

      .cls-10 {
        fill: #6e9ea1;
      }

      .cls-11 {
        fill: #6ca9b5;
      }

      .cls-12 {
        fill: #6e9fa3;
      }

      .cls-13 {
        fill: #6da1a8;
      }

      .cls-14 {
        fill: #718a7d;
      }

      .cls-15 {
        fill: #718d82;
      }

      .cls-16 {
        fill: #6ca9b6;
      }

      .cls-17 {
        fill: #68c3e6;
      }

      .cls-18 {
        fill: #6bb1c5;
      }

      .cls-19 {
        fill: #67c9f0;
      }

      .cls-20 {
        fill: #68c0e1;
      }

      .cls-21 {
        letter-spacing: -.06em;
      }

      .cls-22 {
        fill: #67c9f1;
      }

      .cls-23 {
        fill: #6e9a9a;
      }

      .cls-24 {
        fill: #6da0a5;
      }

      .cls-25 {
        fill: #6e9ea2;
      }

      .cls-26 {
        fill: #69bad6;
      }

      .cls-27 {
        fill: #71887a;
      }

      .cls-28 {
        fill: #d13920;
      }

      .cls-29 {
        fill: #6ab3c8;
      }

      .cls-30 {
        fill: #6ab7d0;
      }

      .cls-31 {
        fill: #709189;
      }

      .cls-32 {
        fill: #6f9999;
      }

      .cls-33 {
        fill: #6ca6b0;
      }

      .cls-34 {
        fill: #6e9c9e;
      }

      .cls-35 {
        fill: #728574;
      }

      .cls-36 {
        fill: #708e85;
      }

      .cls-37 {
        fill: #6da2a9;
      }

      .cls-38 {
        fill: #66cdf8;
      }

      .cls-39 {
        fill: #67caf2;
      }

      .cls-40 {
        fill: #66caf3;
      }

      .cls-41 {
        fill: #6bb0c2;
      }

      .cls-42 {
        fill: #67c5ea;
      }

      .cls-43 {
        fill: #6f9795;
      }

      .cls-44 {
        fill: #6ca6b1;
      }

      .cls-45 {
        fill: #728472;
      }

      .cls-46, .cls-47 {
        fill: #5cc4f0;
      }

      .cls-48 {
        fill: #6ab4ca;
      }

      .cls-49 {
        fill: #68c4e7;
      }

      .cls-50 {
        fill: #6ab7cf;
      }

      .cls-51 {
        fill: #67c8ef;
      }

      .cls-52 {
        fill: #6ab3c9;
      }

      .cls-53 {
        fill: #6badbd;
      }

      .cls-54 {
        fill: #6da3aa;
      }

      .cls-55 {
        fill: #6cabb9;
      }

      .cls-56 {
        fill: #718c81;
      }

      .cls-57 {
        fill: #728777;
      }

      .cls-58 {
        fill: #69bddb;
      }

      .cls-59 {
        fill: #69bbd7;
      }

      .cls-60 {
        fill: #6da0a6;
      }

      .cls-61 {
        fill: #6e9fa4;
      }

      .cls-62 {
        fill: #6bb0c3;
      }

      .cls-63 {
        fill: #70928b;
      }

      .cls-64 {
        fill: #68c2e4;
      }

      .cls-65 {
        fill: #6f938e;
      }

      .cls-66 {
        fill: #6bacbc;
      }

      .cls-67 {
        fill: #68c0e0;
      }

      .cls-68 {
        fill: #67c4e8;
      }

      .cls-69 {
        fill: #728675;
      }

      .cls-70 {
        fill: #728676;
      }

      .cls-71 {
        fill: #6f9896;
      }

      .cls-72 {
        fill: #66ccf7;
      }

      .cls-73 {
        fill: #6ca8b4;
      }

      .cls-74 {
        fill: #708e84;
      }

      .cls-75 {
        fill: #6da4ac;
      }

      .cls-76 {
        fill: #718b7e;
      }

      .cls-77 {
        fill: #68c3e5;
      }

      .cls-78 {
        fill: #6bacbb;
      }

      .cls-79 {
        fill: #6ab2c6;
      }

      .cls-80 {
        fill: #6da4ad;
      }

      .cls-81 {
        fill: #708d83;
      }

      .cls-82 {
        fill: #6ab6ce;
      }

      .cls-83 {
        fill: #69b8d2;
      }

      .cls-84 {
        fill: #6f9490;
      }

      .cls-85 {
        fill: #718879;
      }

      .cls-86 {
        fill: #69bad5;
      }

      .cls-87 {
        fill: #6da3ab;
      }

      .cls-88 {
        fill: #6ca7b3;
      }

      .cls-89 {
        fill: #6ab6cd;
      }

      .cls-90 {
        fill: #66cbf4;
      }

      .cls-91 {
        fill: #718778;
      }

      .cls-92 {
        fill: #69b9d3;
      }

      .cls-93 {
        fill: #6caab7;
      }

      .cls-94 {
        fill: #70928c;
      }

      .cls-95 {
        fill: #67c7ed;
      }

      .cls-96 {
        fill: #6ab5cc;
      }

      .cls-97 {
        fill: #728573;
      }

      .cls-98 {
        fill: #6ab2c7;
      }

      .cls-99 {
        fill: #67c8ee;
      }

      .cls-100 {
        fill: #69bcd8;
      }

      .cls-101 {
        fill: #708f86;
      }

      .cls-102 {
        fill: #67c6ec;
      }

      .cls-103 {
        fill: #6f9591;
      }

      .cls-104 {
        fill: #708f87;
      }

      .cls-105 {
        fill: #6f9592;
      }

      .cls-106 {
        fill: #69bedc;
      }

      .cls-107 {
        fill: #6bb1c4;
      }

      .cls-108 {
        fill: #6e9da0;
      }

      .cls-109 {
        fill: #6ca7b2;
      }

      .cls-110 {
        fill: #6f948f;
      }

      .cls-111 {
        fill: #6cabba;
      }

      .cls-112 {
        fill: #68bedd;
      }

      .cls-113 {
        fill: #68bfde;
      }

      .cls-114 {
        fill: #718c80;
      }

      .cls-115 {
        fill: #6bafc1;
      }

      .cls-116 {
        fill: #66cbf5;
      }

      .cls-117 {
        fill: #6f9998;
      }

      .cls-118 {
        fill: #718b7f;
      }

      .cls-119 {
        fill: #6e9a9b;
      }

      .cls-120 {
        fill: #6e9d9f;
      }

      .cls-121 {
        fill: #6da5ae;
      }

      .cls-122 {
        fill: #6f9693;
      }

      .cls-123 {
        fill: #6badbe;
      }

      .cls-124 {
        fill: #6e9b9c;
      }

      .cls-125 {
        fill: #70918a;
      }

      .cls-126 {
        fill: #69b8d1;
      }

      .cls-127 {
        fill: #71897c;
      }

      .cls-128 {
        fill: #6f9794;
      }

      .cls-129 {
        fill: #69b9d4;
      }

      .cls-130 {
        fill: #67c6eb;
      }

      .cls-131 {
        fill: #6caab8;
      }

      .cls-132 {
        fill: #6e9b9d;
      }

      .cls-133 {
        fill: #6baec0;
      }

      .cls-134 {
        fill: #69bdda;
      }

      .cls-135 {
        fill: #6f9897;
      }

      .cls-136 {
        fill: #67c5e9;
      }

      .cls-47 {
        font-family: NirmalaText-Bold, 'Nirmala Text';
        font-size: 150px;
        font-weight: 700;
      }

      .cls-137 {
        fill: #6ab4cb;
      }

      .cls-138 {
        fill: #6baebf;
      }

      .cls-139 {
        fill: #66ccf6;
      }

      .cls-140 {
        fill: #68c2e3;
      }
    </style>
  </defs>
  <g>
    <path class="cls-46" d="M529.13,417.65c-24.99,9.88-95.72,45.04-129.03,47.92-36.04,3.12-67.05-1.96-96.16-17.66-13.57-7.32-59.36-37.91-58.21-24.51,1.15,13.4,40.6,366.13,40.6,366.13,0,0,15.32,31.02,134.81,28.34s123.7-30.26,123.7-30.26c1.53-24.13,41.36-369.96,41.36-369.96,0,0-18.99-15.05-57.06,0ZM546.75,655.86c-5.41,54.89-10.91,106.93-15.7,118.72-16.07,39.57-188.77,38.85-220.21,4.98-21.7-23.38-22.89-103.14-31.4-176.94-9.45-81.85-22.87-157.22-8.14-153.49,21.73,5.51,50.37,26.45,88.57,28.63,25.31,1.45,58.48-.54,101.11-13.79,46.31-14.39,68.94-38.3,97.66-32.94,16.35,3.05,8.65,16.59,3.06,84.64-1.55,18.85-9.1,80.97-14.94,140.17Z"/>
    <path class="cls-5" d="M636.56,222.61c-5.13-23.42-111-30.71-187.19-33.59-15.4-2.02-28.86-1.26-28.86-1.26-1.81.05-3.68.1-5.59.15-1.91-.05-3.78-.1-5.59-.15,0,0-13.47-.76-28.86,1.26-76.19,2.88-182.06,10.17-187.19,33.59-6.13,27.96,67.4,614.3,67.4,614.3,0,0,16.85,39.14,154.24,38.76,137.38.38,154.24-38.76,154.24-38.76,0,0,73.53-586.34,67.4-614.3ZM396.7,202.84c3.4-.09,7.03-.14,10.93-.14,2.67,0,5.3,0,7.9,0h.01c2.6,0,5.24,0,7.9,0,3.9,0,7.53.06,10.93.14,148.62,1.95,187.34,22.83,187.34,22.83,0,0-22.21,22.21-189.85,23.68-1.96.03-4,.05-6.12.06-3.46.01-6.86.02-10.21.02-3.35,0-6.75,0-10.21-.02-2.12,0-4.16-.03-6.12-.06-167.64-1.48-189.85-23.68-189.85-23.68,0,0,38.72-20.88,187.34-22.83ZM559.58,808.18s-16.38,29.78-144.66,32.45c-128.28-2.68-144.66-32.45-144.66-32.45l-63.96-567.57s24.93,19.32,177.97,21.98c2.17.14,4.43.21,6.8.23,8.23.06,16.18.08,23.85.06,7.67.02,15.62,0,23.85-.06,2.37-.02,4.63-.1,6.8-.23,153.04-2.66,177.97-21.98,177.97-21.98l-63.96,567.57Z"/>
    <g>
      <path class="cls-38" d="M558.62,431.06c-28.72-5.36-51.35,18.55-97.66,32.94-42.62,13.24-75.8,15.24-101.11,13.79-38.19-2.19-66.83-23.13-88.57-28.63-14.73-3.73-1.31,71.64,8.14,153.49,8.52,73.79,9.7,153.55,31.4,176.94,31.44,33.87,204.14,34.59,220.21-4.98,4.79-11.79,10.29-63.83,15.7-118.72,5.84-59.2,13.39-121.32,14.94-140.17,5.59-68.05,13.28-81.59-3.06-84.64Z"/>
      <path class="cls-72" d="M359.39,479.49c-37.92-2.2-66.35-23.29-87.93-28.5-14.57-3.52-1.25,71.43,8.18,152.72,8.51,73.3,10.07,152.64,32.01,175.84,31.6,33.61,203.33,34.23,219.37-5.1,4.81-11.74,10.28-63.42,15.67-118.08,5.8-58.82,13.29-120.54,14.83-139.25,5.55-67.54,13.11-80.78-3.29-83.7-28.67-5.1-51.74,18.58-98.08,32.73-42.58,13.04-75.61,14.85-100.77,13.33Z"/>
      <path class="cls-139" d="M358.93,481.21c-37.64-2.3-65.88-23.46-87.29-28.37-14.41-3.3-1.19,71.23,8.22,151.96,8.51,72.81,10.51,151.67,32.62,174.74,31.86,33.25,202.51,33.86,218.53-5.22,4.83-11.68,10.28-63.01,15.63-117.43,5.76-58.45,13.19-119.76,14.72-138.33,5.51-67.03,12.94-79.97-3.51-82.75-28.61-4.84-52.14,18.62-98.5,32.52-42.53,12.85-75.42,14.4-100.43,12.87Z"/>
      <path class="cls-116" d="M358.46,482.94c-37.36-2.36-65.4-23.63-86.65-28.23-14.25-3.09-1.14,71.02,8.27,151.2,8.5,72.32,10.92,150.73,33.23,173.65,32.07,32.94,201.61,33.47,217.69-5.34,4.82-11.64,10.28-62.6,15.6-116.79,5.72-58.08,13.1-118.98,14.61-137.41,5.46-66.53,12.77-79.16-3.74-81.81-28.55-4.58-52.53,18.66-98.91,32.31-42.48,12.65-75.23,13.99-100.09,12.42Z"/>
      <path class="cls-90" d="M357.99,484.66c-37.09-2.42-64.93-23.8-86.01-28.1-14.09-2.87-1.08,70.82,8.31,150.44,8.5,71.83,11.32,149.79,33.84,172.55,32.27,32.63,200.77,33.09,216.84-5.47,4.83-11.59,10.27-62.19,15.56-116.14,5.68-57.71,13-118.2,14.5-136.49,5.42-66.02,12.6-78.35-3.96-80.87-28.49-4.33-52.95,18.6-99.33,32.11-42.46,12.36-75.04,13.57-99.75,11.96Z"/>
      <path class="cls-40" d="M357.53,486.39c-36.81-2.48-64.46-23.97-85.37-27.97-13.94-2.66-1.02,70.61,8.35,149.68,8.49,71.33,11.72,148.85,34.44,171.46,32.48,32.32,199.93,32.72,216-5.59,4.84-11.54,10.27-61.78,15.53-115.49,5.64-57.33,12.9-117.42,14.39-135.57,5.38-65.51,12.43-77.54-4.18-79.92-28.42-4.07-53.35,18.61-99.75,31.9-42.42,12.14-74.85,13.16-99.41,11.5Z"/>
      <path class="cls-39" d="M357.06,488.11c-36.53-2.54-63.99-24.15-84.74-27.83-13.79-2.45-.96,70.4,8.39,148.92,8.49,70.84,12.13,147.9,35.05,170.36,32.68,32.01,199.09,32.34,215.16-5.71,4.85-11.48,10.27-61.36,15.5-114.85,5.6-56.96,12.81-116.65,14.28-134.65,5.34-65,12.26-76.74-4.41-78.98-28.36-3.82-53.74,18.63-100.17,31.69-42.38,11.92-74.66,12.74-99.07,11.05Z"/>
      <path class="cls-22" d="M356.59,489.84c-36.25-2.59-63.52-24.32-84.1-27.7-13.64-2.24-.91,70.2,8.43,148.16,8.48,70.35,12.53,146.96,35.66,169.27,32.88,31.7,198.25,31.97,214.32-5.83,4.86-11.43,10.26-60.95,15.46-114.2,5.56-56.59,12.71-115.87,14.18-133.73,5.3-64.49,12.09-75.93-4.63-78.04-28.29-3.57-54.14,18.64-100.59,31.48-42.34,11.7-74.47,12.32-98.73,10.59Z"/>
      <path class="cls-19" d="M356.12,491.57c-35.98-2.65-63.06-24.5-83.46-27.56-13.49-2.03-.85,69.99,8.48,147.4,8.48,69.86,12.93,146.02,36.27,168.17,33.08,31.4,197.41,31.59,213.48-5.95,4.87-11.38,10.26-60.54,15.43-113.56,5.52-56.21,12.61-115.09,14.07-132.81,5.26-63.99,11.93-75.12-4.85-77.09-28.22-3.32-54.54,18.66-101.01,31.27-42.29,11.48-74.27,11.91-98.39,10.13Z"/>
      <path class="cls-51" d="M355.66,493.3c-35.7-2.71-62.59-24.68-82.82-27.43-13.34-1.82-.79,69.79,8.52,146.64,8.48,69.37,13.33,145.08,36.87,167.08,33.28,31.09,196.57,31.22,212.63-6.08,4.88-11.33,10.25-60.13,15.39-112.91,5.48-55.84,12.51-114.31,13.96-131.89,5.21-63.48,11.76-74.31-5.08-76.15-28.16-3.07-54.94,18.67-101.42,31.07-42.25,11.27-74.08,11.49-98.06,9.68Z"/>
      <path class="cls-99" d="M355.19,495.03c-35.42-2.76-62.13-24.85-82.18-27.3-13.2-1.61-.74,69.58,8.56,145.88,8.47,68.88,13.73,144.14,37.48,165.98,33.47,30.78,195.73,30.85,211.79-6.2,4.89-11.28,10.25-59.72,15.36-112.26,5.44-55.47,12.42-113.53,13.85-130.97,5.17-62.97,11.6-73.51-5.3-75.21-28.09-2.82-55.33,18.69-101.84,30.86-42.21,11.05-73.89,11.08-97.72,9.22Z"/>
      <path class="cls-95" d="M354.72,496.76c-35.14-2.82-61.68-25.03-81.54-27.16-13.06-1.4-.68,69.37,8.6,145.11,8.47,68.38,14.12,143.19,38.09,164.88,33.67,30.47,194.89,30.47,210.95-6.32,4.9-11.23,10.25-59.31,15.32-111.62,5.4-55.09,12.32-112.75,13.74-130.05,5.13-62.46,11.44-72.7-5.53-74.26-28.01-2.58-55.73,18.7-102.26,30.65-42.17,10.83-73.7,10.66-97.38,8.76Z"/>
      <path class="cls-102" d="M354.25,498.49c-34.87-2.88-61.22-25.22-80.91-27.03-12.92-1.19-.62,69.17,8.65,144.35,8.46,67.89,14.52,142.25,38.7,163.79,33.86,30.17,194.05,30.1,210.11-6.44,4.91-11.18,10.24-58.9,15.29-110.97,5.36-54.72,12.22-111.97,13.63-129.13,5.09-61.95,11.28-71.9-5.75-73.32-27.94-2.33-56.13,18.72-102.68,30.44-42.12,10.61-73.51,10.25-97.04,8.31Z"/>
      <path class="cls-130" d="M353.79,500.22c-34.59-2.93-60.77-25.4-80.27-26.9-12.79-.98-.57,68.96,8.69,143.59,8.46,67.4,14.92,141.31,39.31,162.69,34.06,29.86,193.21,29.72,209.26-6.56,4.92-11.12,10.24-58.48,15.26-110.33,5.32-54.35,12.13-111.19,13.52-128.21,5.05-61.45,11.12-71.09-5.97-72.38-27.87-2.09-56.52,18.73-103.1,30.24-42.08,10.39-73.32,9.83-96.7,7.85Z"/>
      <path class="cls-42" d="M353.32,501.96c-34.31-2.99-60.32-25.58-79.63-26.76-12.66-.78-.51,68.76,8.73,142.83,8.45,66.91,15.31,140.37,39.91,161.6,34.25,29.55,192.37,29.35,208.42-6.69,4.93-11.07,10.23-58.07,15.22-109.68,5.28-53.97,12.03-110.41,13.42-127.29,5-60.94,10.96-70.29-6.2-71.43-27.79-1.85-56.92,18.75-103.51,30.03-42.03,10.18-73.12,9.41-96.36,7.39Z"/>
      <path class="cls-136" d="M352.85,503.69c-34.03-3.04-59.88-25.76-78.99-26.63-12.53-.57-.45,68.55,8.77,142.07,8.45,66.42,15.7,139.43,40.52,160.5,34.44,29.25,191.53,28.97,207.58-6.81,4.94-11.02,10.23-57.66,15.19-109.03,5.24-53.6,11.93-109.63,13.31-126.37,4.96-60.43,10.8-69.49-6.42-70.49-27.72-1.62-57.31,18.77-103.93,29.82-41.99,9.96-72.93,9-96.02,6.93Z"/>
      <path class="cls-68" d="M352.38,505.43c-33.75-3.1-59.44-25.94-78.35-26.49-12.41-.36-.39,68.35,8.81,141.31,8.44,65.93,16.1,138.48,41.13,159.41,34.63,28.94,190.7,28.6,206.74-6.93,4.95-10.97,10.23-57.25,15.15-108.39,5.2-53.23,11.84-108.85,13.2-125.45,4.92-59.92,10.64-68.68-6.65-69.55-27.64-1.38-57.71,18.78-104.35,29.61-41.95,9.74-72.74,8.58-95.68,6.48Z"/>
      <path class="cls-49" d="M351.92,507.17c-33.47-3.15-59-26.13-77.71-26.36-12.29-.15-.34,68.14,8.86,140.55,8.44,65.43,16.49,137.54,41.74,158.31,34.81,28.64,189.86,28.23,205.9-7.05,4.96-10.92,10.22-56.84,15.12-107.74,5.16-52.85,11.74-108.07,13.09-124.53,4.88-59.42,10.49-67.88-6.87-68.6-27.56-1.15-58.1,18.8-104.77,29.41-41.9,9.52-72.55,8.17-95.34,6.02Z"/>
      <path class="cls-17" d="M351.45,508.91c-33.2-3.21-58.57-26.31-77.08-26.23-12.17.05-.28,67.93,8.9,139.79,8.44,64.94,16.88,136.6,42.34,157.22,35,28.33,189.02,27.85,205.05-7.17,4.98-10.87,10.22-56.43,15.08-107.1,5.12-52.48,11.64-107.29,12.98-123.6,4.84-58.91,10.33-67.08-7.09-67.66-27.48-.92-58.5,18.82-105.19,29.2-41.86,9.31-72.35,7.75-95,5.56Z"/>
      <path class="cls-77" d="M350.98,510.65c-32.92-3.26-58.14-26.49-76.44-26.09-12.06.26-.22,67.73,8.94,139.03,8.43,64.45,17.27,135.66,42.95,156.12,35.18,28.03,188.18,27.48,204.21-7.3,4.99-10.82,10.22-56.01,15.05-106.45,5.08-52.11,11.54-106.51,12.87-122.68,4.8-58.4,10.18-66.28-7.32-66.72-27.4-.69-58.89,18.83-105.61,28.99-41.81,9.09-72.16,7.34-94.67,5.11Z"/>
      <path class="cls-64" d="M350.52,512.39c-32.64-3.32-57.71-26.67-75.8-25.96-11.95.47-.17,67.52,8.98,138.27,8.43,63.96,17.66,134.72,43.56,155.02,35.37,27.73,187.35,27.1,203.37-7.42,5-10.77,10.21-55.6,15.02-105.81,5.04-51.73,11.45-105.73,12.76-121.76,4.75-57.89,10.02-65.48-7.54-65.78-27.32-.46-59.29,18.85-106.02,28.78-41.77,8.88-71.96,6.92-94.33,4.65Z"/>
      <path class="cls-140" d="M350.05,514.14c-32.36-3.37-57.29-26.85-75.16-25.83-11.85.68-.11,67.32,9.02,137.5,8.42,63.47,18.05,133.78,44.17,153.93,35.55,27.42,186.51,26.73,202.53-7.54,5.01-10.72,10.21-55.19,14.98-105.16,5.01-51.36,11.35-104.95,12.66-120.84,4.71-57.38,9.87-64.68-7.77-64.83-27.23-.24-59.68,18.87-106.44,28.57-41.72,8.66-71.77,6.51-93.99,4.19Z"/>
      <path class="cls-3" d="M349.59,515.89c-32.08-3.42-56.87-27.02-74.52-25.69-11.75.89-.05,67.11,9.07,136.74,8.42,62.98,18.44,132.84,44.78,152.83,35.73,27.12,185.68,26.35,201.68-7.66,5.02-10.67,10.2-54.78,14.95-104.51,4.97-50.99,11.25-104.17,12.55-119.92,4.67-56.88,9.72-63.88-7.99-63.89-27.15-.01-60.07,18.89-106.86,28.37-41.68,8.45-71.58,6.09-93.65,3.74Z"/>
      <path class="cls-20" d="M349.12,517.63c-31.8-3.48-56.45-27.2-73.89-25.56-11.65,1.1,0,66.91,9.11,135.98,8.41,62.48,18.82,131.9,45.38,151.74,35.91,26.82,184.84,25.98,200.84-7.78,5.03-10.61,10.2-54.37,14.91-103.87,4.93-50.62,11.16-103.39,12.44-119,4.63-56.37,9.56-63.08-8.21-62.95-27.07.21-60.47,18.9-107.28,28.16-41.63,8.23-71.38,5.68-93.31,3.28Z"/>
      <path class="cls-67" d="M348.65,519.39c-31.52-3.53-56.04-27.37-73.25-25.43-11.56,1.31.06,66.7,9.15,135.22,8.41,61.99,19.21,130.96,45.99,150.64,36.08,26.52,184.01,25.61,200-7.91,5.04-10.56,10.2-53.96,14.88-103.22,4.89-50.24,11.06-102.61,12.33-118.08,4.59-55.86,9.41-62.28-8.44-62-26.98.43-60.86,18.92-107.7,27.95-41.59,8.02-71.19,5.26-92.97,2.82Z"/>
      <path class="cls-2" d="M348.19,521.14c-31.24-3.58-55.63-27.54-72.61-25.29-11.47,1.52.12,66.49,9.19,134.46,8.4,61.5,19.59,130.02,46.6,149.55,36.26,26.22,183.17,25.23,199.16-8.03,5.05-10.51,10.19-53.54,14.84-102.58,4.85-49.87,10.96-101.83,12.22-117.16,4.55-55.35,9.26-61.49-8.66-61.06-26.9.64-61.25,18.94-108.12,27.74-41.54,7.8-70.99,4.85-92.63,2.37Z"/>
      <path class="cls-113" d="M347.73,522.89c-30.96-3.63-55.23-27.7-71.97-25.16-11.39,1.73.18,66.29,9.23,133.7,8.4,61.01,19.98,129.08,47.21,148.45,36.44,25.92,182.34,24.86,198.32-8.15,5.06-10.46,10.19-53.13,14.81-101.93,4.81-49.5,10.86-101.05,12.11-116.24,4.5-54.85,9.11-60.69-8.88-60.12-26.81.86-61.65,18.96-108.53,27.54-41.49,7.59-70.8,4.43-92.29,1.91Z"/>
      <path class="cls-112" d="M347.15,524.65c-30.68-3.69-54.58-24.89-71.33-25.02-10.78,3.92.23,66.08,9.28,132.94,8.4,60.52,20.36,128.14,47.82,147.36,36.61,25.62,181.5,24.48,197.47-8.27,5.08-10.41,10.18-52.72,14.78-101.28,4.77-49.12,10.77-100.27,12-115.32,4.46-54.34,8.96-59.9-9.11-59.17-26.72,1.07-62.04,18.98-108.95,27.33-41.45,7.38-70.6,4.02-91.95,1.45Z"/>
      <path class="cls-106" d="M346.67,526.41c-30.4-3.74-54.13-24.96-70.69-24.89-10.63,4.21.29,65.88,9.32,132.18,8.39,60.03,20.74,127.2,48.42,146.26,36.78,25.33,180.67,24.11,196.63-8.39,5.09-10.36,10.18-52.31,14.74-100.64,4.73-48.75,10.67-99.49,11.9-114.4,4.42-53.83,8.81-59.1-9.33-58.23-26.63,1.28-62.43,19-109.37,27.12-41.4,7.16-70.41,3.6-91.61,1Z"/>
      <path class="cls-58" d="M346.19,528.17c-30.12-3.79-53.68-25.02-70.06-24.76-10.49,4.49.35,65.67,9.36,131.42,8.39,59.54,21.13,126.26,49.03,145.16,36.96,25.03,179.84,23.73,195.79-8.52,5.1-10.31,10.18-51.9,14.71-99.99,4.69-48.38,10.57-98.71,11.79-113.48,4.38-53.32,8.67-58.31-9.56-57.29-26.55,1.49-62.82,19.02-109.79,26.91-41.35,6.95-70.21,3.19-91.28.54Z"/>
      <path class="cls-134" d="M345.71,529.93c-29.84-3.84-53.22-25.09-69.42-24.62-10.34,4.77.4,65.46,9.4,130.65,8.38,59.04,21.51,125.33,49.64,144.07,37.13,24.73,179.01,23.36,194.95-8.64,5.11-10.26,10.17-51.49,14.67-99.35,4.65-48,10.48-97.93,11.68-112.56,4.34-52.81,8.52-57.52-9.78-56.34-26.46,1.7-63.21,19.04-110.21,26.71-41.31,6.74-70.01,2.77-90.94.08Z"/>
      <path class="cls-1" d="M345.23,531.7c-29.56-3.89-52.77-25.15-68.78-24.49-10.19,5.06.46,65.26,9.45,129.89,8.38,58.55,21.89,124.39,50.25,142.97,37.3,24.44,178.17,22.99,194.11-8.76,5.12-10.21,10.17-51.08,14.64-98.7,4.61-47.63,10.38-97.15,11.57-111.64,4.3-52.31,8.37-56.73-10-55.4-26.37,1.9-63.61,19.06-110.62,26.5-41.26,6.53-69.82,2.36-90.6-.38Z"/>
      <path class="cls-100" d="M344.76,533.47c-29.28-3.94-52.32-25.22-68.14-24.36-10.05,5.34.39,65.07,9.49,129.13,8.25,58.08,22.27,123.45,50.85,141.88,37.47,24.14,177.34,22.61,193.26-8.88,5.14-10.16,10.16-50.66,14.6-98.05,4.57-47.26,10.28-96.37,11.46-110.72,4.25-51.8,8.23-55.94-10.23-54.46-26.28,2.11-64,19.08-111.04,26.29-41.21,6.31-69.62,1.95-90.26-.83Z"/>
      <path class="cls-59" d="M344.28,535.23c-29-3.99-51.86-25.28-67.5-24.22-9.9,5.62.44,64.87,9.53,128.37,8.24,57.59,22.64,122.52,51.46,140.78,37.63,23.85,176.51,22.24,192.42-9,5.15-10.11,10.16-50.25,14.57-97.41,4.53-46.88,10.19-95.59,11.35-109.8,4.21-51.29,8.08-55.15-10.45-53.51-26.19,2.31-64.39,19.1-111.46,26.08-41.16,6.1-69.42,1.53-89.92-1.29Z"/>
      <path class="cls-26" d="M343.79,537.01c-28.71-4.04-51.41-25.35-66.86-24.09-9.76,5.91.49,64.66,9.57,127.61,8.24,57.1,23.02,121.58,52.07,139.69,37.8,23.56,175.68,21.87,191.58-9.12,5.16-10.06,10.16-49.84,14.54-96.76,4.49-46.51,10.09-94.82,11.24-108.88,4.17-50.78,7.93-54.36-10.68-52.57-26.09,2.51-64.78,19.13-111.88,25.87-41.11,5.89-69.23,1.12-89.58-1.75Z"/>
      <path class="cls-86" d="M343.31,538.86c-28.43-4.09-50.96-25.41-66.23-23.95-9.61,6.19.54,64.46,9.61,126.85,8.23,56.6,23.4,120.65,52.68,138.59,37.96,23.27,174.85,21.49,190.74-9.25,5.17-10.01,10.15-49.43,14.5-96.12,4.45-46.14,9.99-94.04,11.13-107.96,4.13-50.27,7.79-53.57-10.9-51.63-26,2.7-65.17,19.15-112.3,25.67-41.07,5.68-69.03.7-89.24-2.2Z"/>
      <path class="cls-129" d="M342.83,540.88c-28.15-4.14-50.5-25.48-65.59-23.82-9.46,6.47.6,64.25,9.66,126.09,8.22,56.11,23.78,119.71,53.29,137.5,38.13,22.98,174.02,21.12,189.89-9.37,5.18-9.96,10.15-49.02,14.47-95.47,4.41-45.76,9.89-93.26,11.03-107.04,4.09-49.77,7.64-52.78-11.12-50.68-25.91,2.9-65.56,19.17-112.72,25.46-41.02,5.47-68.83.29-88.9-2.66Z"/>
      <path class="cls-92" d="M342.35,542.9c-27.87-4.18-50.05-25.54-64.95-23.69-9.32,6.76.65,64.05,9.7,125.33,8.21,55.62,24.15,118.78,53.89,136.4,38.29,22.69,173.19,20.74,189.05-9.49,5.2-9.9,10.15-48.61,14.43-94.82,4.37-45.39,9.8-92.48,10.92-106.12,4.05-49.26,7.5-52-11.35-49.74-25.82,3.09-65.95,19.19-113.13,25.25-40.97,5.26-68.63-.12-88.56-3.12Z"/>
      <path class="cls-83" d="M341.86,544.92c-27.59-4.23-49.59-25.61-64.31-23.55-9.17,7.04.7,63.84,9.74,124.57,8.2,55.13,24.53,117.85,54.5,135.3,38.46,22.4,172.36,20.37,188.21-9.61,5.21-9.85,10.14-48.19,14.4-94.18,4.33-45.02,9.7-91.7,10.81-105.2,4-48.75,7.35-51.21-11.57-48.8-25.73,3.28-66.34,19.22-113.55,25.04-40.92,5.05-68.43-.54-88.22-3.57Z"/>
      <path class="cls-126" d="M341.38,546.94c-27.31-4.28-49.14-25.68-63.67-23.42-9.02,7.32.76,63.64,9.78,123.81,8.2,54.64,24.9,116.91,55.11,134.21,38.62,22.11,171.53,20,187.37-9.73,5.22-9.8,10.14-47.78,14.36-93.53,4.29-44.65,9.6-90.92,10.7-104.28,3.96-48.24,7.21-50.43-11.8-47.86-25.64,3.47-66.73,19.24-113.97,24.84-40.87,4.84-68.23-.95-87.89-4.03Z"/>
      <path class="cls-30" d="M340.89,548.96c-27.02-4.32-48.69-25.74-63.03-23.29-8.88,7.61.81,63.43,9.82,123.04,8.19,54.15,25.28,115.98,55.72,133.11,38.78,21.82,170.7,19.62,186.53-9.86,5.23-9.75,10.13-47.37,14.33-92.89,4.25-44.27,9.51-90.14,10.59-103.36,3.92-47.74,7.07-49.65-12.02-46.91-25.54,3.66-67.12,19.26-114.39,24.63-40.82,4.63-68.04-1.36-87.55-4.49Z"/>
      <path class="cls-50" d="M340.41,550.99c-26.74-4.37-48.23-25.81-62.4-23.15-8.73,7.89.86,63.23,9.87,122.28,8.18,53.66,25.65,115.05,56.32,132.02,38.94,21.54,169.88,19.25,185.68-9.98,5.25-9.7,10.13-46.96,14.3-92.24,4.21-43.9,9.41-89.36,10.48-102.44,3.88-47.23,6.92-48.87-12.24-45.97-25.45,3.85-67.51,19.29-114.81,24.42-40.77,4.42-67.84-1.78-87.21-4.94Z"/>
      <path class="cls-82" d="M339.92,553.01c-26.46-4.42-47.78-25.87-61.76-23.02-8.58,8.17.92,63.02,9.91,121.52,8.17,53.17,26.02,114.12,56.93,130.92,39.1,21.25,169.05,18.88,184.84-10.1,5.26-9.65,10.04-46.56,14.26-91.59,4.08-43.53,9.31-88.58,10.37-101.52,3.84-46.72,6.78-48.09-12.47-45.03-25.36,4.03-67.9,19.31-115.23,24.21-40.73,4.22-67.64-2.19-86.87-5.4Z"/>
      <path class="cls-89" d="M339.44,555.03c-26.17-4.46-47.33-25.94-61.12-22.88-8.44,8.46.97,62.82,9.95,120.76,8.16,52.68,26.39,113.19,57.54,129.83,39.26,20.97,168.22,18.5,184-10.22,5.27-9.6,10.03-46.15,14.23-90.95,4.04-43.16,9.21-87.8,10.27-100.6,3.8-46.21,6.63-47.31-12.69-44.08-25.26,4.22-68.29,19.34-115.64,24.01-40.68,4.01-67.44-2.6-86.53-5.86Z"/>
      <path class="cls-96" d="M338.95,557.06c-25.89-4.5-46.87-26-60.48-22.75-8.29,8.74,1.02,62.61,9.99,120,8.16,52.19,26.77,112.26,58.15,128.73,39.41,20.69,167.39,18.13,183.16-10.34,5.29-9.55,10.02-45.73,14.19-90.3,4-42.79,9.12-87.02,10.16-99.68,3.75-45.7,6.49-46.53-12.91-43.14-25.17,4.4-68.68,19.36-116.06,23.8-40.63,3.8-67.24-3.02-86.19-6.31Z"/>
      <path class="cls-137" d="M338.47,559.08c-25.61-4.55-46.42-26.07-59.84-22.62-8.15,9.02,1.08,62.41,10.04,119.24,8.15,51.7,27.14,111.33,58.76,127.63,39.57,20.4,166.57,17.76,182.32-10.47,5.3-9.5,10.02-45.32,14.16-89.66,3.96-42.42,9.02-86.24,10.05-98.76,3.71-45.2,6.35-45.75-13.14-42.2-25.08,4.58-69.07,19.39-116.48,23.59-40.58,3.59-67.03-3.43-85.85-6.77Z"/>
      <path class="cls-48" d="M337.98,561.11c-25.33-4.59-45.97-26.13-59.2-22.48-8,9.31,1.13,62.2,10.08,118.48,8.14,51.2,27.51,110.4,59.36,126.54,39.73,20.12,165.74,17.39,181.47-10.59,5.31-9.45,10.01-44.91,14.12-89.01,3.92-42.04,8.92-85.46,9.94-97.84,3.67-44.69,6.2-44.97-13.36-41.25-24.99,4.75-69.46,19.42-116.9,23.38-40.53,3.39-66.83-3.84-85.51-7.23Z"/>
      <path class="cls-52" d="M337.49,563.13c-25.04-4.63-45.51-26.2-58.57-22.35-7.85,9.59,1.18,62,10.12,117.72,8.13,50.71,27.88,109.48,59.97,125.44,39.88,19.84,164.92,17.01,180.63-10.71,5.33-9.4,10.01-44.5,14.09-88.37,3.88-41.67,8.83-84.68,9.83-96.92,3.63-44.18,6.06-44.2-13.59-40.31-24.89,4.93-69.85,19.44-117.32,23.17-40.48,3.18-66.63-4.25-85.17-7.68Z"/>
      <path class="cls-29" d="M337,565.16c-24.76-4.68-45.06-26.26-57.93-22.22-7.71,9.88,1.24,61.79,10.16,116.96,8.12,50.22,28.25,108.55,60.58,124.35,40.04,19.56,164.09,16.64,179.79-10.83,5.34-9.35,10-44.09,14.06-87.72,3.84-41.3,8.73-83.9,9.72-96,3.59-43.67,5.92-43.43-13.81-39.37-24.8,5.1-70.23,19.47-117.73,22.97-40.43,2.98-66.43-4.67-84.84-8.14Z"/>
      <path class="cls-98" d="M336.52,567.19c-24.47-4.72-44.61-26.33-57.29-22.08-7.56,10.16,1.29,61.59,10.2,116.2,8.12,49.73,28.62,107.63,61.19,123.25,40.19,19.28,163.27,16.27,178.95-10.95,5.35-9.3,10-43.68,14.02-87.07,3.8-40.92,8.63-83.12,9.61-95.08,3.55-43.17,5.77-42.65-14.03-38.42-24.71,5.28-70.62,19.5-118.15,22.76-40.38,2.77-66.23-5.08-84.5-8.6Z"/>
      <path class="cls-79" d="M336.03,569.21c-24.19-4.76-44.15-26.39-56.65-21.95-7.41,10.44,1.34,61.38,10.25,115.43,8.11,49.24,28.98,106.7,61.79,122.16,40.35,19.01,162.45,15.9,178.1-11.08,5.37-9.25,9.99-43.27,13.99-86.43,3.76-40.55,8.54-82.34,9.51-94.16,3.5-42.66,5.63-41.88-14.26-37.48-24.62,5.45-71.01,19.53-118.57,22.55-40.33,2.56-66.02-5.49-84.16-9.06Z"/>
      <path class="cls-18" d="M335.54,571.24c-23.91-4.8-43.7-26.46-56.01-21.81-7.27,10.73,1.4,61.18,10.29,114.67,8.1,48.75,29.35,105.78,62.4,121.06,40.5,18.73,161.62,15.52,177.26-11.2,5.38-9.2,9.98-42.85,13.95-85.78,3.71-40.18,8.44-81.56,9.4-93.24,3.46-42.15,5.49-41.11-14.48-36.54-24.52,5.62-71.4,19.56-118.99,22.34-40.28,2.36-65.82-5.9-83.82-9.51Z"/>
      <path class="cls-107" d="M335.05,573.27c-23.62-4.84-43.24-26.52-55.38-21.68-7.12,11.01,1.45,60.97,10.33,113.91,8.09,48.26,29.72,104.85,63.01,119.97,40.65,18.46,160.8,15.15,176.42-11.32,5.4-9.15,9.98-42.44,13.92-85.14,3.67-39.8,8.34-80.78,9.29-92.31,3.42-41.64,5.34-40.34-14.71-35.59-24.43,5.78-71.79,19.58-119.41,22.14-40.23,2.16-65.62-6.31-83.48-9.97Z"/>
      <path class="cls-62" d="M334.56,575.3c-23.34-4.87-42.79-26.59-54.74-21.55-6.98,11.29,1.5,60.77,10.37,113.15,8.09,47.77,30.09,103.93,63.62,118.87,40.8,18.18,159.98,14.78,175.58-11.44,5.41-9.1,9.97-42.03,13.88-84.49,3.63-39.43,8.24-80,9.18-91.39,3.38-41.13,5.2-39.57-14.93-34.65-24.34,5.95-72.18,19.61-119.83,21.93-40.18,1.95-65.41-6.72-83.14-10.43Z"/>
      <path class="cls-41" d="M334.07,577.32c-23.05-4.91-42.34-26.65-54.1-21.41-6.83,11.58,1.56,60.56,10.41,112.39,8.08,47.28,30.45,103.01,64.23,117.77,40.96,17.91,159.16,14.41,174.74-11.56,5.43-9.05,9.97-41.62,13.85-83.84,3.59-39.06,8.15-79.22,9.07-90.47,3.34-40.63,5.06-38.8-15.15-33.71-24.25,6.12-72.56,19.64-120.24,21.72-40.13,1.75-65.21-7.13-82.8-10.88Z"/>
      <path class="cls-115" d="M333.58,579.35c-22.77-4.95-41.88-26.72-53.46-21.28-6.68,11.86,1.61,60.36,10.46,111.63,8.07,46.79,30.82,102.09,64.83,116.68,41.11,17.64,158.34,14.04,173.89-11.69,5.44-9,9.96-41.21,13.82-83.2,3.55-38.68,8.05-78.44,8.96-89.55,3.29-40.12,4.91-38.04-15.38-32.76-24.16,6.28-72.95,19.67-120.66,21.51-40.08,1.55-65-7.54-82.46-11.34Z"/>
      <path class="cls-133" d="M333.09,581.38c-22.48-4.98-41.43-26.79-52.82-21.15-6.54,12.14,1.67,60.15,10.5,110.87,8.06,46.3,31.19,101.17,65.44,115.58,41.26,17.36,157.52,13.67,173.05-11.81,5.45-8.94,9.96-40.8,13.78-82.55,3.51-38.31,7.95-77.66,8.85-88.63,3.25-39.61,4.77-37.27-15.6-31.82-24.07,6.44-73.34,19.7-121.08,21.31-40.03,1.34-64.8-7.96-82.12-11.8Z"/>
      <path class="cls-138" d="M332.6,583.41c-22.2-5.02-40.98-26.85-52.18-21.01-6.39,12.43,1.72,59.95,10.54,110.11,8.06,45.81,31.55,100.25,66.05,114.49,41.41,17.09,156.7,13.29,172.21-11.93,5.47-8.89,9.95-40.39,13.75-81.91,3.47-37.94,7.86-76.88,8.75-87.71,3.21-39.1,4.62-36.51-15.83-30.88-23.97,6.6-73.73,19.74-121.5,21.1-39.98,1.14-64.59-8.37-81.78-12.25Z"/>
      <path class="cls-123" d="M332.11,585.44c-21.91-5.05-40.52-26.92-51.55-20.88-6.24,12.71,1.77,59.74,10.58,109.35,8.05,45.32,31.92,99.33,66.66,113.39,41.56,16.82,155.88,12.92,171.37-12.05,5.48-8.84,9.94-39.97,13.71-81.26,3.43-37.57,7.76-76.1,8.64-86.79,3.17-38.59,4.48-35.75-16.05-29.94-23.88,6.76-74.12,19.77-121.92,20.89-39.92.94-64.39-8.78-81.45-12.71Z"/>
      <path class="cls-53" d="M331.62,587.47c-21.63-5.09-40.07-26.98-50.91-20.75-6.1,12.99,1.83,59.54,10.62,108.59,8.04,44.82,32.28,98.41,67.27,112.3,41.71,16.56,155.06,12.55,170.52-12.17,5.5-8.79,9.94-39.56,13.68-80.61,3.39-37.19,7.66-75.32,8.53-85.87,3.13-38.09,4.33-34.98-16.27-28.99-23.79,6.92-74.5,19.8-122.34,20.68-39.87.74-64.18-9.18-81.11-13.17Z"/>
      <path class="cls-66" d="M331.13,589.5c-21.34-5.12-39.62-27.05-50.27-20.61-5.95,13.28,1.88,59.33,10.67,107.82,8.03,44.33,32.65,97.49,67.87,111.2,41.86,16.29,154.24,12.18,169.68-12.3,5.52-8.74,9.93-39.15,13.64-79.97,3.35-36.82,7.56-74.54,8.42-84.95,3.09-37.58,4.19-34.22-16.5-28.05-23.7,7.08-74.89,19.83-122.75,20.48-39.82.54-63.97-9.59-80.77-13.62Z"/>
      <path class="cls-78" d="M330.63,591.52c-21.05-5.15-39.16-27.11-49.63-20.48-5.8,13.56,1.93,59.13,10.71,107.06,8.03,43.84,33.01,96.58,68.48,110.11,42.01,16.02,153.42,11.81,168.84-12.42,5.53-8.69,9.93-38.74,13.61-79.32,3.31-36.45,7.47-73.76,8.31-84.03,3.04-37.07,4.04-33.46-16.72-27.11-23.62,7.23-75.28,19.86-123.17,20.27-39.77.33-63.77-10-80.43-14.08Z"/>
      <path class="cls-111" d="M330.14,593.55c-20.77-5.18-38.71-27.18-48.99-20.34-5.66,13.84,1.99,58.92,10.75,106.3,8.02,43.35,33.38,95.66,69.09,109.01,42.15,15.76,152.61,11.44,168-12.54,5.55-8.64,9.92-38.33,13.58-78.68,3.27-36.07,7.37-72.99,8.2-83.11,3-36.56,3.9-32.71-16.94-26.16-23.53,7.39-75.67,19.9-123.59,20.06-39.72.13-63.56-10.41-80.09-14.54Z"/>
      <path class="cls-55" d="M329.65,595.58c-20.48-5.21-38.26-27.24-48.35-20.21-5.51,14.13,2.04,58.72,10.79,105.54,8.01,42.86,33.74,94.75,69.7,107.91,42.3,15.49,151.79,11.07,167.16-12.66,5.56-8.59,9.92-37.92,13.54-78.03,3.23-35.7,7.27-72.21,8.09-82.19,2.96-36.06,3.75-31.95-17.17-25.22-23.44,7.54-76.05,19.93-124.01,19.85-39.67-.07-63.35-10.82-79.75-14.99Z"/>
      <path class="cls-131" d="M329.16,597.61c-20.2-5.24-37.8-27.31-47.72-20.08-5.37,14.41,2.1,58.51,10.84,104.78,8,42.37,34.11,93.83,70.3,106.82,42.45,15.23,150.97,10.7,166.31-12.78,5.58-8.54,9.91-37.51,13.51-77.38,3.19-35.33,7.18-71.43,7.99-81.27,2.92-35.55,3.6-31.19-17.39-24.28-23.35,7.69-76.44,19.97-124.43,19.64-39.62-.27-63.14-11.23-79.41-15.45Z"/>
      <path class="cls-93" d="M328.66,599.64c-19.91-5.27-37.35-27.37-47.08-19.94-5.22,14.69,2.15,58.31,10.88,104.02,8,41.88,34.47,92.92,70.91,105.72,42.6,14.96,150.16,10.33,165.47-12.91,5.59-8.49,9.91-37.09,13.47-76.74,3.14-34.95,7.08-70.65,7.88-80.35,2.88-35.04,3.45-30.44-17.62-23.33-23.26,7.84-76.83,20-124.84,19.44-39.57-.47-62.93-11.64-79.07-15.91Z"/>
      <path class="cls-16" d="M328.17,601.67c-19.62-5.3-36.89-27.44-46.44-19.81-5.07,14.98,2.2,58.1,10.92,103.26,7.99,41.39,34.83,92.01,71.52,104.63,42.75,14.7,149.34,9.96,164.63-13.03,5.61-8.44,9.9-36.68,13.44-76.09,3.1-34.58,6.98-69.87,7.77-79.43,2.84-34.53,3.31-29.68-17.84-22.39-23.18,7.99-77.22,20.04-125.26,19.23-39.52-.66-62.72-12.04-78.73-16.36Z"/>
      <path class="cls-11" d="M327.68,603.7c-19.34-5.32-36.44-27.5-45.8-19.68-4.93,15.26,2.26,57.9,10.96,102.5,7.98,40.9,35.2,91.1,72.13,103.53,42.89,14.44,148.53,9.59,163.79-13.15,5.63-8.39,9.9-36.27,13.4-75.45,3.06-34.21,6.89-69.09,7.66-78.51,2.79-34.02,3.16-28.93-18.06-21.45-23.09,8.14-77.6,20.07-125.68,19.02-39.47-.86-62.51-12.45-78.39-16.82Z"/>
      <path class="cls-73" d="M327.18,605.72c-19.05-5.35-35.99-27.57-45.16-19.54-4.78,15.54,2.31,57.69,11,101.74,7.97,40.41,35.56,90.19,72.74,102.44,43.04,14.18,147.71,9.22,162.95-13.27,5.64-8.34,9.89-35.86,13.37-74.8,3.02-33.83,6.79-68.31,7.55-77.59,2.75-33.52,3.01-28.18-18.29-20.5-23,8.29-77.99,20.11-126.1,18.81-39.42-1.06-62.3-12.86-78.06-17.28Z"/>
      <path class="cls-88" d="M326.69,607.75c-18.76-5.37-35.53-27.63-44.52-19.41-4.63,15.83,2.37,57.49,11.05,100.98,7.97,39.92,35.92,89.28,73.34,101.34,43.19,13.92,146.9,8.85,162.1-13.39,5.66-8.28,9.88-35.45,13.34-74.15,2.98-33.46,6.69-67.53,7.44-76.67,2.71-33.01,2.86-27.43-18.51-19.56-22.92,8.44-78.38,20.14-126.52,18.61-39.37-1.26-62.09-13.26-77.72-17.74Z"/>
      <path class="cls-109" d="M326.2,609.78c-18.48-5.39-35.08-27.7-43.89-19.27-4.49,16.11,2.42,57.28,11.09,100.21,7.96,39.43,36.29,88.37,73.95,100.25,43.34,13.66,146.09,8.49,161.26-13.51,5.68-8.23,9.88-35.04,13.3-73.51,2.94-33.09,6.59-66.75,7.33-75.75,2.67-32.5,2.71-26.68-18.74-18.62-22.83,8.58-78.77,20.18-126.94,18.4-39.31-1.46-61.88-13.67-77.38-18.19Z"/>
      <path class="cls-44" d="M325.7,611.81c-18.19-5.41-34.63-27.76-43.25-19.14-4.34,16.39,2.48,57.08,11.13,99.45,7.95,38.94,36.65,87.46,74.56,99.15,43.48,13.41,145.28,8.12,160.42-13.64,5.69-8.18,9.87-34.62,13.27-72.86,2.9-32.72,6.5-65.97,7.23-74.83,2.63-31.99,2.56-25.93-18.96-17.67-22.75,8.73-79.15,20.22-127.35,18.19-39.26-1.65-61.67-14.07-77.04-18.65Z"/>
      <path class="cls-33" d="M325.21,613.83c-17.9-5.43-34.17-27.83-42.61-19.01-4.19,16.68,2.53,56.87,11.17,98.69,7.95,38.45,37.01,86.56,75.17,98.05,43.63,13.15,144.47,7.75,159.58-13.76,5.71-8.13,9.87-34.21,13.23-72.22,2.86-32.34,6.4-65.19,7.12-73.91,2.59-31.49,2.41-25.18-19.18-16.73-22.67,8.87-79.54,20.26-127.77,17.98-39.21-1.85-61.46-14.48-76.7-19.11Z"/>
      <path class="cls-7" d="M324.71,615.86c-17.61-5.45-33.72-27.9-41.97-18.87-4.05,16.96,2.58,56.67,11.21,97.93,7.94,37.96,37.37,85.65,75.77,96.96,43.78,12.89,143.66,7.38,158.73-13.88,5.73-8.08,9.86-33.8,13.2-71.57,2.82-31.97,6.3-64.41,7.01-72.99,2.54-30.98,2.25-24.44-19.41-15.79s-79.93,20.3-128.19,17.78c-39.16-2.05-61.24-14.88-76.36-19.56Z"/>
      <path class="cls-121" d="M324.22,617.89c-17.33-5.47-33.27-27.96-41.33-18.74-3.9,17.25,2.64,56.47,11.26,97.17,7.93,37.47,37.74,84.74,76.38,95.86,43.92,12.64,142.85,7.01,157.89-14,5.75-8.03,9.86-33.39,13.16-70.93,2.78-31.6,6.21-63.63,6.9-72.07,2.5-30.47,2.1-23.69-19.63-14.84-22.5,9.16-80.32,20.33-128.61,17.57-39.11-2.24-61.03-15.29-76.02-20.02Z"/>
      <path class="cls-80" d="M323.72,619.91c-17.04-5.49-32.81-28.03-40.7-18.61-3.76,17.53,2.69,56.26,11.3,96.41,7.93,36.98,38.1,83.84,76.99,94.77,44.07,12.38,142.04,6.65,157.05-14.12,5.77-7.98,9.85-32.98,13.13-70.28,2.74-31.22,6.11-62.85,6.79-71.15,2.46-29.96,1.95-22.95-19.85-13.9-22.42,9.3-80.7,20.37-129.03,17.36-39.06-2.44-60.82-15.69-75.68-20.48Z"/>
      <path class="cls-75" d="M323.23,621.94c-16.75-5.5-32.36-28.09-40.06-18.47-3.61,17.81,2.75,56.06,11.34,95.65,7.92,36.49,38.46,82.93,77.6,93.67,44.22,12.13,141.23,6.28,156.21-14.25,5.78-7.92,9.85-32.57,13.1-69.63,2.7-30.85,6.01-62.07,6.68-70.23,2.42-29.45,1.79-22.2-20.08-12.96-22.34,9.44-81.09,20.41-129.44,17.15-39.01-2.63-60.6-16.09-75.34-20.93Z"/>
      <path class="cls-87" d="M322.73,623.96c-16.47-5.51-31.91-28.16-39.42-18.34-3.46,18.1,2.8,55.85,11.38,94.89,7.91,36,38.82,82.03,78.21,92.58,44.37,11.88,140.42,5.91,155.37-14.37,5.8-7.87,9.84-32.16,13.06-68.99,2.66-30.48,5.92-61.29,6.57-69.31,2.38-28.95,1.64-21.46-20.3-12.02-22.26,9.58-81.48,20.45-129.86,16.94-38.96-2.83-60.39-16.49-75-21.39Z"/>
      <path class="cls-54" d="M322.24,625.99c-16.18-5.53-31.45-28.22-38.78-18.2-3.32,18.38,2.86,55.65,11.43,94.13,7.91,35.5,39.19,81.13,78.81,91.48,44.51,11.63,139.61,5.55,154.52-14.49,5.82-7.82,9.84-31.74,13.03-68.34,2.62-30.1,5.82-60.51,6.46-68.39,2.34-28.44,1.48-20.72-20.53-11.07-22.18,9.72-81.87,20.5-130.28,16.74-38.91-3.02-60.17-16.9-74.67-21.85Z"/>
      <path class="cls-37" d="M321.75,628.01c-15.89-5.54-31-28.29-38.14-18.07-3.17,18.66,2.91,55.44,11.47,93.36,7.9,35.01,39.55,80.23,79.42,90.38,44.66,11.38,138.8,5.18,153.68-14.61,5.84-7.77,9.83-31.33,12.99-67.7,2.58-29.73,5.72-59.73,6.36-67.47,2.29-27.93,1.33-19.98-20.75-10.13s-82.25,20.54-130.7,16.53c-38.86-3.21-59.96-17.3-74.33-22.3Z"/>
      <path class="cls-13" d="M321.25,630.03c-15.6-5.55-30.54-28.35-37.5-17.94-3.02,18.95,2.97,55.24,11.51,92.6,7.89,34.52,39.91,79.33,80.03,89.29,44.81,11.13,138,4.82,152.84-14.73,5.86-7.72,9.83-30.92,12.96-67.05,2.54-29.36,5.62-58.95,6.25-66.55,2.25-27.42,1.17-19.24-20.97-9.19-22.02,10-82.64,20.58-131.12,16.32-38.81-3.41-59.74-17.7-73.99-22.76Z"/>
      <path class="cls-6" d="M320.76,632.05c-15.32-5.55-30.09-28.42-36.87-17.8-2.88,19.23,3.02,55.03,11.55,91.84,7.89,34.03,40.27,78.43,80.64,88.19,44.95,10.88,137.19,4.45,152-14.86,5.88-7.66,9.82-30.51,12.92-66.4,2.5-28.98,5.53-58.17,6.14-65.63,2.21-26.91,1.01-18.5-21.2-8.24-21.94,10.13-83.03,20.62-131.54,16.11-38.76-3.6-59.52-18.1-73.65-23.22Z"/>
      <path class="cls-60" d="M320.26,634.08c-15.03-5.56-29.64-28.48-36.23-17.67-2.73,19.51,3.08,54.83,11.59,91.08,7.88,33.54,40.64,77.53,81.24,87.1,45.1,10.63,136.39,4.09,151.15-14.98,5.9-7.61,9.82-30.1,12.89-65.76,2.46-28.61,5.43-57.39,6.03-64.71,2.17-26.41.85-17.76-21.42-7.3-21.87,10.27-83.42,20.66-131.95,15.91-38.71-3.79-59.31-18.5-73.31-23.67Z"/>
      <path class="cls-24" d="M319.77,636.1c-14.74-5.56-29.18-28.55-35.59-17.54-2.58,19.8,3.13,54.62,11.64,90.32,7.87,33.05,41,76.63,81.85,86,45.25,10.38,135.58,3.72,150.31-15.1,5.92-7.56,9.81-29.69,12.86-65.11,2.42-28.24,5.33-56.61,5.92-63.79,2.13-25.9.69-17.03-21.65-6.36-21.79,10.41-83.81,20.71-132.37,15.7-38.66-3.99-59.09-18.89-72.97-24.13Z"/>
      <path class="cls-61" d="M319.27,638.01c-15.21-2.95-28.73-28.61-34.95-17.4-2.44,20.08,3.19,54.42,11.68,89.56,7.87,32.56,41.36,75.73,82.46,84.91,45.39,10.13,134.78,3.36,149.47-15.22,5.94-7.51,9.81-29.28,12.82-64.47,2.38-27.86,5.24-55.83,5.81-62.87,2.09-25.39.53-16.29-21.87-5.41-21.71,10.54-84.2,20.75-132.79,15.49-38.61-4.18-60.01-16.96-72.63-24.59Z"/>
      <path class="cls-12" d="M318.78,640.02c-14.93-2.96-28.28-28.68-34.31-17.27-2.29,20.36,3.24,54.22,11.72,88.8,7.86,32.07,41.72,74.84,83.07,83.81,45.54,9.89,133.97,3,148.63-15.34,5.96-7.45,9.8-28.86,12.79-63.82,2.35-27.49,5.14-55.05,5.7-61.95,2.04-24.88.37-15.56-22.09-4.47-21.64,10.68-84.58,20.8-133.21,15.28-38.56-4.37-59.82-17.35-72.29-25.05Z"/>
      <path class="cls-25" d="M318.28,642.04c-14.66-2.97-27.82-28.74-33.67-17.13-2.15,20.65,3.3,54.01,11.76,88.04,7.85,31.58,42.09,73.94,83.68,82.72,45.69,9.64,133.17,2.63,147.79-15.47,5.98-7.4,9.8-28.45,12.75-63.17,2.31-27.12,5.04-54.27,5.6-61.03,2-24.38.21-14.82-22.32-3.53-21.56,10.81-84.97,20.84-133.63,15.08-38.51-4.56-59.64-17.73-71.95-25.5Z"/>
      <path class="cls-10" d="M317.79,644.05c-14.39-2.98-27.37-28.81-33.04-17-2,20.93,3.36,53.81,11.8,87.28,7.85,31.09,42.45,73.05,84.28,81.62,45.84,9.4,132.37,2.27,146.94-15.59,6-7.35,9.8-28.04,12.72-62.53,2.27-26.74,4.94-53.49,5.49-60.1,1.96-23.87.05-14.09-22.54-2.58s-85.36,20.89-134.05,14.87c-38.46-4.75-59.45-18.11-71.61-25.96Z"/>
      <path class="cls-108" d="M317.95,646.21c-14.11-2.99-29.03-29.63-32.4-16.87-5.43,20.59,3.41,53.6,11.85,86.52,7.84,30.6,42.81,72.15,84.89,80.52,45.99,9.15,131.57,1.91,146.1-15.71,6.02-7.3,9.79-27.63,12.68-61.88,2.23-26.37,4.85-52.71,5.38-59.18,1.92-23.36-.12-13.36-22.77-1.64-21.42,11.08-85.75,20.93-134.46,14.66-38.41-4.94-59.26-18.5-71.28-26.42Z"/>
      <path class="cls-120" d="M317.43,648.21c-13.84-2.99-28.54-29.64-31.76-16.73-5.22,20.92,3.47,53.4,11.89,85.75,7.84,30.11,43.17,71.26,85.5,79.43,46.13,8.91,130.77,1.55,145.26-15.83,6.04-7.24,9.79-27.22,12.65-61.24,2.19-26,4.75-51.93,5.27-58.26,1.88-22.85-.28-12.63-22.99-.7-21.34,11.21-86.14,20.98-134.88,14.45-38.36-5.13-59.07-18.88-70.94-26.87Z"/>
      <path class="cls-34" d="M316.92,650.22c-13.57-3-28.05-29.66-31.12-16.6-5,21.26,3.52,53.19,11.93,84.99,7.83,29.62,43.54,70.36,86.11,78.33,46.28,8.66,129.97,1.19,144.42-15.95,6.06-7.19,9.78-26.81,12.62-60.59,2.15-25.63,4.65-51.16,5.16-57.34,1.84-22.34-.45-11.9-23.21.25-21.27,11.35-86.53,21.02-135.3,14.24-38.31-5.32-58.88-19.26-70.6-27.33Z"/>
      <path class="cls-132" d="M316.4,652.22c-13.29-3.01-27.55-29.68-30.48-16.47-4.79,21.58,3.58,52.99,11.97,84.23,7.83,29.13,43.9,69.47,86.72,77.24,46.43,8.42,129.17.83,143.58-16.08,6.08-7.13,9.78-26.39,12.58-59.94,2.11-25.25,4.56-50.38,5.05-56.42,1.79-21.84-.61-11.17-23.44,1.19-21.2,11.48-86.92,21.07-135.72,14.04-38.26-5.51-58.7-19.65-70.26-27.79Z"/>
      <path class="cls-124" d="M315.89,654.22c-13.02-3.02-27.06-29.7-29.84-16.33-4.57,21.91,3.64,52.78,12.01,83.47,7.82,28.64,44.27,68.58,87.32,76.14,46.58,8.18,128.37.47,142.73-16.2,6.1-7.08,9.77-25.98,12.55-59.3,2.07-24.88,4.46-49.6,4.94-55.5,1.75-21.33-.78-10.44-23.66,2.13-21.13,11.61-87.31,21.12-136.14,13.83-38.21-5.7-58.51-20.03-69.92-28.24Z"/>
      <path class="cls-119" d="M315.37,656.22c-12.74-3.03-26.56-29.72-29.21-16.2-4.35,22.24,3.69,52.58,12.06,82.71,7.82,28.15,44.63,67.69,87.93,75.05,46.73,7.94,127.57.11,141.89-16.32,6.13-7.03,9.77-25.57,12.51-58.65,2.03-24.51,4.36-48.82,4.84-54.58,1.71-20.82-.95-9.71-23.88,3.08-21.06,11.74-87.7,21.17-136.55,13.62-38.16-5.89-58.32-20.41-69.58-28.7Z"/>
      <path class="cls-23" d="M314.85,658.22c-12.47-3.04-26.06-29.74-28.57-16.07-4.13,22.56,3.75,52.38,12.1,81.95,7.81,27.66,44.99,66.8,88.54,73.95,46.88,7.7,126.77-.25,141.05-16.44,6.15-6.97,9.77-25.16,12.48-58.01,1.99-24.13,4.27-48.04,4.73-53.66,1.67-20.31-1.12-8.98-24.11,4.02-20.99,11.87-88.09,21.21-136.97,13.41-38.11-6.08-58.13-20.8-69.24-29.16Z"/>
      <path class="cls-32" d="M314.34,660.22c-12.2-3.05-25.56-29.77-27.93-15.93-3.91,22.88,3.81,52.17,12.14,81.19,7.81,27.17,45.36,65.91,89.15,72.86,47.03,7.46,125.98-.61,140.21-16.56,6.17-6.92,9.76-24.75,12.44-57.36,1.95-23.76,4.17-47.26,4.62-52.74,1.63-19.81-1.29-8.26-24.33,4.96-20.93,12-88.48,21.26-137.39,13.21-38.07-6.27-57.94-21.18-68.9-29.61Z"/>
      <path class="cls-117" d="M313.82,662.22c-11.92-3.06-25.07-29.8-27.29-15.8-3.69,23.2,3.86,51.97,12.18,80.43,7.8,26.68,45.72,65.02,89.75,71.76,47.18,7.22,125.18-.97,139.36-16.69,6.19-6.86,9.76-24.34,12.41-56.72,1.92-23.39,4.07-46.48,4.51-51.82,1.58-19.3-1.46-7.53-24.56,5.9-20.86,12.13-88.87,21.31-137.81,13-38.02-6.46-57.76-21.56-68.56-30.07Z"/>
      <path class="cls-135" d="M313.31,664.22c-11.65-3.07-24.57-29.83-26.65-15.66-3.47,23.52,3.92,51.76,12.23,79.67,7.8,26.19,46.08,64.13,90.36,70.66,47.33,6.98,124.38-1.33,138.52-16.81,6.22-6.81,9.75-23.92,12.38-56.07,1.88-23.01,3.97-45.7,4.4-50.9,1.54-18.79-1.63-6.81-24.78,6.85-20.79,12.26-89.26,21.36-138.23,12.79-37.97-6.65-57.57-21.95-68.22-30.53Z"/>
      <path class="cls-71" d="M312.79,666.21c-11.38-3.08-24.07-29.86-26.02-15.53-3.24,23.83,3.98,51.56,12.27,78.91,7.79,25.7,46.45,63.24,90.97,69.57,47.48,6.74,123.59-1.68,137.68-16.93,6.24-6.75,9.75-23.51,12.34-55.42,1.84-22.64,3.88-44.92,4.29-49.98,1.5-18.28-1.8-6.08-25,7.79-20.73,12.39-89.65,21.41-138.65,12.58-37.92-6.83-57.38-22.33-67.89-30.98Z"/>
      <path class="cls-43" d="M312.28,668.21c-11.1-3.08-23.57-29.89-25.38-15.4-3.01,24.15,4.03,51.35,12.31,78.14,7.79,25.21,46.81,62.36,91.58,68.47,47.63,6.51,122.79-2.04,136.84-17.05,6.26-6.69,9.75-23.1,12.31-54.78,1.8-22.27,3.78-44.14,4.18-49.06,1.46-17.77-1.98-5.36-25.23,8.73-20.66,12.52-90.04,21.46-139.06,12.38-37.87-7.02-57.19-22.71-67.55-31.44Z"/>
      <path class="cls-128" d="M311.76,670.2c-10.83-3.09-23.07-29.93-24.74-15.26-2.79,24.46,4.09,51.15,12.35,77.38,7.78,24.72,47.18,61.47,92.19,67.38,47.78,6.27,122-2.39,136-17.17,6.29-6.64,9.74-22.69,12.27-54.13,1.76-21.89,3.68-43.36,4.08-48.14,1.42-17.27-2.15-4.64-25.45,9.68-20.6,12.65-90.43,21.51-139.48,12.17-37.82-7.21-57-23.1-67.21-31.9Z"/>
      <path class="cls-122" d="M311.25,672.19c-10.56-3.1-22.57-29.97-24.1-15.13-2.56,24.77,4.15,50.95,12.39,76.62,7.78,24.23,47.54,60.59,92.79,66.28,47.93,6.03,121.2-2.75,135.15-17.3,6.31-6.58,9.74-22.28,12.24-53.49,1.72-21.52,3.59-42.58,3.97-47.22,1.38-16.76-2.33-3.91-25.68,10.62-20.54,12.78-90.83,21.57-139.9,11.96-37.78-7.39-56.82-23.48-66.87-32.35Z"/>
      <path class="cls-105" d="M310.74,674.18c-10.28-3.11-22.07-30-23.46-15-2.33,25.07,4.21,50.74,12.44,75.86,7.78,23.74,47.91,59.7,93.4,65.19,48.08,5.8,120.41-3.1,134.31-17.42,6.34-6.52,9.74-21.87,12.2-52.84,1.69-21.15,3.49-41.8,3.86-46.3,1.33-16.25-2.5-3.19-25.9,11.56-20.47,12.91-91.22,21.62-140.32,11.75-37.73-7.58-56.63-23.86-66.53-32.81Z"/>
      <path class="cls-103" d="M310.22,676.17c-10.01-3.12-21.56-30.05-22.82-14.86-2.11,25.38,4.27,50.54,12.48,75.1,7.77,23.25,48.28,58.82,94.01,64.09,48.23,5.56,119.62-3.46,133.47-17.54,6.36-6.47,9.73-21.45,12.17-52.19,1.65-20.77,3.39-41.02,3.75-45.38,1.29-15.74-2.68-2.47-26.12,12.51-20.41,13.04-91.61,21.67-140.74,11.54-37.68-7.77-56.44-24.25-66.19-33.27Z"/>
      <path class="cls-84" d="M309.71,678.16c-9.73-3.13-21.06-30.09-22.19-14.73-1.88,25.69,4.33,50.33,12.52,74.34,7.77,22.76,48.64,57.93,94.62,63,48.39,5.33,118.83-3.81,132.63-17.66,6.39-6.41,9.73-21.04,12.14-51.55,1.61-20.4,3.29-40.24,3.64-44.46,1.25-15.23-2.86-1.75-26.35,13.45-20.35,13.17-92,21.72-141.16,11.34-37.64-7.95-56.25-24.63-65.85-33.73Z"/>
      <path class="cls-110" d="M309.21,680.15c-9.46-3.14-20.56-30.13-21.55-14.59-1.65,25.99,4.39,50.13,12.56,73.58,7.77,22.27,49.01,57.05,95.22,61.9,48.54,5.09,118.03-4.16,131.78-17.78,6.41-6.35,9.73-20.63,12.1-50.9,1.57-20.03,3.2-39.46,3.53-43.54,1.21-14.73-3.04-1.03-26.57,14.39-20.29,13.3-92.4,21.78-141.57,11.13-37.59-8.14-56.06-25.01-65.51-34.18Z"/>
      <path class="cls-65" d="M308.7,682.13c-9.19-3.15-20.06-30.18-20.91-14.46-1.42,26.29,4.44,49.92,12.6,72.82s49.37,56.17,95.83,60.8,117.24-4.51,130.94-17.9c6.44-6.29,9.72-20.22,12.07-50.26,1.53-19.65,3.1-38.68,3.42-42.62,1.17-14.22-3.22-.31-26.8,15.34-20.23,13.43-92.79,21.83-141.99,10.92-37.54-8.32-55.88-25.4-65.17-34.64Z"/>
      <path class="cls-4" d="M308.19,684.12c-8.91-3.16-19.56-30.22-20.27-14.33-1.19,26.59,4.5,49.72,12.65,72.06,7.76,21.29,49.74,55.29,96.44,59.71,48.84,4.63,116.45-4.86,130.1-18.03,6.46-6.23,9.72-19.81,12.03-49.61,1.5-19.28,3-37.9,3.32-41.7,1.13-13.71-3.4.4-27.02,16.28-20.17,13.56-93.18,21.88-142.41,10.71-37.5-8.51-55.69-25.78-64.83-35.1Z"/>
      <path class="cls-94" d="M307.69,686.1c-8.64-3.17-19.06-30.27-19.63-14.19-.96,26.89,4.56,49.52,12.69,71.3,7.76,20.8,50.11,54.4,97.05,58.61,49,4.39,115.66-5.21,129.26-18.15,6.49-6.18,9.72-19.4,12-48.96,1.46-18.91,2.91-37.12,3.21-40.78,1.08-13.2-3.58,1.12-27.24,17.22-20.11,13.68-93.57,21.94-142.83,10.51-37.45-8.69-55.5-26.16-64.5-35.55Z"/>
      <path class="cls-63" d="M307.19,688.08c-8.37-3.18-18.56-30.32-18.99-14.06-.73,27.18,4.62,49.31,12.73,70.53s50.47,53.52,97.66,57.52,114.87-5.56,128.42-18.27c6.52-6.12,9.72-18.98,11.96-48.32,1.42-18.53,2.81-36.34,3.1-39.86,1.04-12.7-3.76,1.84-27.47,18.17-20.05,13.81-93.97,21.99-143.25,10.3-37.4-8.88-55.31-26.55-64.16-36.01Z"/>
      <path class="cls-125" d="M306.7,690.06c-8.09-3.18-18.05-30.37-18.36-13.93-.5,27.48,4.69,49.11,12.77,69.77,7.76,19.82,50.84,52.64,98.26,56.42,49.3,3.93,114.08-5.91,127.57-18.39,6.54-6.05,9.71-18.57,11.93-47.67,1.38-18.16,2.71-35.56,2.99-38.94,1-12.19-3.95,2.56-27.69,19.11-20,13.94-94.36,22.05-143.66,10.09-37.36-9.06-55.12-26.93-63.82-36.47Z"/>
      <path class="cls-31" d="M306.21,692.03c-7.82-3.19-17.55-30.42-17.72-13.79-.27,27.77,4.75,48.9,12.82,69.01s51.21,51.76,98.87,55.33c49.46,3.7,113.29-6.25,126.73-18.51,6.57-5.99,9.71-18.16,11.9-47.03,1.35-17.79,2.62-34.78,2.88-38.02.96-11.68-4.13,3.27-27.91,20.05-19.94,14.07-94.76,22.11-144.08,9.88-37.31-9.25-54.94-27.31-63.48-36.92Z"/>
      <path class="cls-9" d="M305.73,694.01c-7.55-3.2-17.05-30.47-17.08-13.66-.05,28.07,4.81,48.7,12.86,68.25,7.75,18.84,51.58,50.88,99.48,54.23,49.61,3.47,112.51-6.6,125.89-18.64,6.6-5.93,9.71-17.75,11.86-46.38,1.31-17.41,2.52-34,2.77-37.1.92-11.17-4.32,3.99-28.14,21-19.88,14.2-95.15,22.16-144.5,9.68-37.27-9.43-54.75-27.7-63.14-37.38Z"/>
      <path class="cls-104" d="M305.25,695.98c-7.27-3.21-16.55-30.53-16.44-13.52.18,28.36,4.87,48.49,12.9,67.49,7.75,18.35,51.95,50.01,100.09,53.13,49.77,3.23,111.72-6.95,125.05-18.76,6.63-5.87,9.71-17.34,11.83-45.73,1.27-17.04,2.42-33.22,2.66-36.18.88-10.66-4.5,4.7-28.36,21.94-19.83,14.33-95.55,22.22-144.92,9.47-37.22-9.61-54.56-28.08-62.8-37.84Z"/>
      <path class="cls-101" d="M304.77,697.95c-7-3.22-16.05-30.58-15.8-13.39.41,28.65,4.93,48.29,12.94,66.73,7.75,17.86,52.31,49.13,100.69,52.04,49.92,3,110.93-7.29,124.21-18.88,6.65-5.81,9.71-16.93,11.79-45.09,1.23-16.67,2.32-32.44,2.56-35.26.83-10.16-4.69,5.42-28.59,22.88-19.78,14.45-95.94,22.27-145.34,9.26-37.18-9.8-54.37-28.46-62.46-38.29Z"/>
      <path class="cls-36" d="M304.29,699.92c-6.72-3.23-15.55-30.64-15.16-13.26.64,28.94,5,48.08,12.98,65.97,7.75,17.37,52.68,48.25,101.3,50.94,50.08,2.77,110.14-7.63,123.36-19,6.68-5.75,9.71-16.51,11.76-44.44,1.2-16.29,2.23-31.66,2.45-34.34.79-9.65-4.88,6.13-28.81,23.82-19.72,14.58-96.34,22.33-145.76,9.05-37.13-9.98-54.19-28.85-62.12-38.75Z"/>
      <path class="cls-74" d="M303.82,701.89c-6.45-3.24-15.05-30.7-14.53-13.12.86,29.22,5.06,47.88,13.03,65.21,7.76,16.88,53.05,47.37,101.91,49.85,50.24,2.54,109.35-7.98,122.52-19.12,6.71-5.68,9.7-16.1,11.72-43.8,1.16-15.92,2.13-30.88,2.34-33.42.75-9.14-5.07,6.85-29.03,24.77-19.67,14.71-96.73,22.39-146.17,8.84-37.09-10.16-54-29.23-61.78-39.21Z"/>
      <path class="cls-81" d="M303.35,703.85c-6.18-3.25-14.55-30.76-13.89-12.99,1.09,29.51,5.12,47.67,13.07,64.45s53.42,46.5,102.52,48.75,108.57-8.32,121.68-19.25c6.74-5.62,9.7-15.69,11.69-43.15,1.12-15.55,2.03-30.1,2.23-32.5.71-8.63-5.26,7.56-29.26,25.71-19.62,14.84-97.13,22.45-146.59,8.64-37.04-10.34-53.81-29.61-61.44-39.66Z"/>
      <path class="cls-15" d="M302.87,705.81c-5.9-3.26-14.04-30.82-13.25-12.86,1.32,29.8,5.19,47.46,13.11,63.69,7.76,15.89,53.79,45.62,103.13,47.66,50.55,2.09,107.78-8.66,120.84-19.37,6.77-5.55,9.7-15.28,11.66-42.5,1.09-15.17,1.94-29.33,2.12-31.58.67-8.13-5.45,8.27-29.48,26.65-19.57,14.97-97.53,22.51-147.01,8.43-37-10.53-53.62-30-61.11-40.12Z"/>
      <path class="cls-56" d="M302.4,707.77c-5.63-3.27-13.54-30.88-12.61-12.72,1.54,30.08,5.25,47.26,13.15,62.92s54.16,44.74,103.73,46.56c50.71,1.86,106.99-9,119.99-19.49,6.8-5.49,9.7-14.87,11.62-41.86,1.05-14.8,1.84-28.55,2.01-30.66.63-7.62-5.65,8.98-29.71,27.6-19.52,15.1-97.92,22.57-147.43,8.22-36.96-10.71-53.43-30.38-60.77-40.58Z"/>
      <path class="cls-114" d="M301.93,709.73c-5.36-3.28-13.04-30.94-11.97-12.59,1.77,30.37,5.32,47.05,13.19,62.16s54.53,43.87,104.34,45.47c50.86,1.63,106.21-9.34,119.15-19.61,6.83-5.42,9.7-14.45,11.59-41.21,1.01-14.43,1.74-27.77,1.9-29.74.58-7.11-5.84,9.7-29.93,28.54-19.47,15.23-98.32,22.62-147.85,8.01-36.91-10.89-53.25-30.76-60.43-41.03Z"/>
      <path class="cls-118" d="M301.47,711.68c-5.08-3.28-12.54-31-11.34-12.45,2,30.65,5.39,46.84,13.24,61.4,7.77,14.42,54.9,42.99,104.95,44.37,51.02,1.4,105.42-9.67,118.31-19.73,6.86-5.35,9.71-14.04,11.55-40.57.98-14.05,1.64-26.99,1.79-28.81.54-6.6-6.03,10.41-30.15,29.48-19.42,15.35-98.72,22.68-148.27,7.81-36.87-11.07-53.06-31.15-60.09-41.49Z"/>
      <path class="cls-76" d="M301,713.63c-4.81-3.29-12.04-31.06-10.7-12.32,2.22,30.93,5.46,46.64,13.28,60.64s55.27,42.12,105.56,43.27c51.18,1.18,104.64-10.01,117.47-19.86,6.89-5.29,9.71-13.63,11.52-39.92.94-13.68,1.55-26.21,1.69-27.89.5-6.09-6.23,11.12-30.38,30.43-19.37,15.48-99.11,22.74-148.68,7.6-36.83-11.25-52.87-31.53-59.75-41.95Z"/>
      <path class="cls-14" d="M300.54,715.58c-4.54-3.3-11.54-31.13-10.06-12.19,2.44,31.21,5.52,46.43,13.32,59.88,7.78,13.43,55.64,41.25,106.17,42.18,51.34.95,103.85-10.35,116.63-19.98,6.92-5.22,9.71-13.22,11.48-39.28.91-13.31,1.45-25.43,1.58-26.97.46-5.59-6.42,11.83-30.6,31.37-19.32,15.61-99.51,22.8-149.1,7.39-36.78-11.43-52.68-31.91-59.41-42.41Z"/>
      <path class="cls-127" d="M300.08,717.53c-4.26-3.31-11.04-31.19-9.42-12.05,2.67,31.49,5.59,46.22,13.36,59.12,7.79,12.93,56.01,40.37,106.77,41.08,51.5.72,103.06-10.68,115.78-20.1,6.95-5.15,9.71-12.81,11.45-38.63.87-12.93,1.35-24.65,1.47-26.05.42-5.08-6.62,12.54-30.83,32.31-19.27,15.74-99.91,22.87-149.52,7.18-36.74-11.61-52.49-32.3-59.07-42.86Z"/>
      <path class="cls-8" d="M299.61,719.52c-3.38-3.94-10.54-31.26-8.78-11.92,2.89,31.77,5.66,46.01,13.4,58.36,7.8,12.44,56.39,39.5,107.38,39.99,51.66.49,102.28-11.01,114.94-20.22,6.98-5.08,9.71-12.39,11.42-37.98.84-12.56,1.26-23.87,1.36-25.13.38-4.57-6.82,13.25-31.05,33.26-19.22,15.87-100.31,22.93-149.94,6.98-36.7-11.79-50.63-33.89-58.73-43.32Z"/>
      <path class="cls-27" d="M299.16,721.43c-3.16-3.86-10.04-31.32-8.14-11.79,3.11,32.05,5.73,45.8,13.45,57.6s56.76,38.01,107.99,38.89,101.49-11.35,114.1-20.34c7.02-5.01,9.72-11.98,11.38-37.34.8-12.18,1.16-23.09,1.25-24.21.33-4.06-7.02,13.96-31.27,34.2-19.18,16-100.71,22.99-150.36,6.77-36.66-11.98-50.54-34.16-58.39-43.78Z"/>
      <path class="cls-85" d="M298.7,723.38c-2.93-3.79-9.54-31.39-7.51-11.65,3.34,32.33,5.81,45.59,13.49,56.84s57.13,37.21,108.6,37.8c51.97.59,100.71-11.68,113.26-20.47,7.05-4.94,9.72-11.57,11.35-36.69.76-11.81,1.06-22.31,1.14-23.29.29-3.55-7.22,14.67-31.5,35.14-19.13,16.13-101.11,23.05-150.77,6.56-36.61-12.16-50.46-34.42-58.06-44.23Z"/>
      <path class="cls-91" d="M298.25,725.31c-2.72-3.72-9.04-31.46-6.87-11.52,3.56,32.6,5.88,45.37,13.53,56.08s57.5,36.41,109.2,36.7c52.14.29,99.92-12.01,112.41-20.59,7.08-4.86,9.72-11.16,11.31-36.05.73-11.44.97-21.53,1.03-22.37.25-3.05-7.42,15.38-31.72,36.09-19.09,16.26-101.51,23.11-151.19,6.35-36.57-12.34-50.41-34.68-57.72-44.69Z"/>
      <path class="cls-57" d="M297.8,727.25c-2.5-3.66-8.54-31.53-6.23-11.39,3.78,32.88,5.95,45.16,13.57,55.31s57.88,36.01,109.81,35.61c52.3-.41,99.13-12.33,111.57-20.71,7.11-4.79,9.73-10.75,11.28-35.4.7-11.06.87-20.75.93-21.45.21-2.54-7.62,16.09-31.94,37.03-19.04,16.39-101.91,23.17-151.61,6.14-36.53-12.52-50.38-34.93-57.38-45.15Z"/>
      <path class="cls-70" d="M297.36,729.17c-2.3-3.59-8.05-31.6-5.59-11.25,4,33.16,6.03,44.94,13.62,54.55,7.85,9.95,58.25,35.14,110.42,34.51,52.46-.63,98.35-12.66,110.73-20.83,7.14-4.71,9.73-10.33,11.24-34.75.66-10.69.77-19.97.82-20.53.17-2.03-7.82,16.8-32.17,37.97-19,16.52-102.31,23.24-152.03,5.94-36.49-12.7-50.37-35.17-57.04-45.6Z"/>
      <path class="cls-69" d="M296.92,731.1c-2.1-3.54-7.55-31.67-4.95-11.12,4.22,33.43,6.1,44.73,13.66,53.79s58.62,34.27,111.03,33.41c52.62-.86,97.56-12.99,109.89-20.95,7.18-4.64,9.78-9.92,11.21-34.11.64-10.32.67-19.19.71-19.61.13-1.52-8.02,17.51-32.39,38.92-18.96,16.65-102.74,23.38-152.45,5.73-36.47-12.82-50.39-35.41-56.7-46.06Z"/>
      <path class="cls-35" d="M296.49,733.03c-1.9-3.48-7.05-31.74-4.31-10.98,4.44,33.71,6.18,44.51,13.7,53.03s59,33.48,111.64,32.32c52.78-1,96.77-13.31,109.05-21.08,7.21-4.56,9.78-9.51,11.17-33.46.6-9.94.58-18.41.6-18.69.08-1.02-8.23,18.22-32.62,39.86-18.91,16.78-103.13,23.42-152.87,5.52-36.42-13.02-50.43-35.65-56.36-46.52Z"/>
      <path class="cls-97" d="M296.1,734.94c-1.71-3.44-6.55-31.81-3.68-10.85,4.66,33.98,6.26,44.28,13.74,52.27,7.9,8.43,59.37,32.57,112.24,31.22,52.94-1.27,95.99-13.63,108.2-21.2,7.24-4.48,9.77-9.1,11.14-32.82.56-9.57.48-17.63.49-17.77.04-.51-8.48,18.88-32.84,40.8-18.9,16.88-103.52,23.45-153.28,5.31-36.38-13.22-50.51-35.89-56.02-46.97Z"/>
      <path class="cls-45" d="M295.63,736.88c-1.53-3.4-6.05-31.88-3.04-10.72,4.88,34.25,6.33,44.06,13.78,51.51,7.91,7.91,59.74,31.66,112.85,30.13s95.2-13.96,107.36-21.32c7.28-4.4,9.77-8.68,11.11-32.17.52-9.2.38-16.85.38-16.85,0,0-8.64,19.64-33.06,41.74-18.83,17.04-103.91,23.49-153.7,5.11-36.33-13.41-50.61-36.13-55.68-47.43Z"/>
    </g>
    <circle class="cls-28" cx="416.61" cy="732.97" r="48.68"/>
    <g>
      <path class="cls-28" d="M363.92,453.76c4.01.23,8.25.36,12.82.43,7.21.1,14.42.01,21.61-.52,5.43-.4,10.77-1.6,16.07-2.82,3.52-.81,7.1-1.78,10.9-2.93,12.98-3.93,34.22-12.42,52.02-20.17.41-2.39.78-4.49,1.08-6.26.37-2.05,1.72-9.43,1.8-10.4.15-1.75.45-3.49.69-5.24.59-4.34,1.09-8.68,1.5-13.04.89-9.43,1.34-18.91,1.15-28.38-.29-14.44-6.34-27.98-16.34-38.32-9.11-9.4-21-16.15-33.61-19.56-5.74-1.55-11.7-2.42-17.65-2.25-27.78.77-54.18,20.68-62.22,49.79-6.52,23.58,4.56,74.31,9.01,92.72,0,0,.43,2.51,1.19,6.96Z"/>
      <path class="cls-28" d="M425.92,460.02c-16.12,4.74-28.23,6.57-48.58,6.28-3.9-.06-7.67-.17-11.33-.36,7.79,45.6,27.09,158.22,30.61,176.27,4.43,22.72,37.99,26.57,43.35-1,4.15-21.33,25.56-145.02,35.05-199.97-16.39,7.17-35.1,14.68-49.09,18.79Z"/>
    </g>
  </g>
  <text class="cls-47" transform="translate(686.93 505.41)"><tspan class="cls-21" x="0" y="0">V</tspan><tspan x="91.48" y="0">AND</tspan></text>
  <text class="cls-47" transform="translate(662.42 694.54)"><tspan class="cls-21" x="0" y="0">V</tspan><tspan x="91.48" y="0">ARSLING</tspan></text>
</svg>